<svg xmlns="http://www.w3.org/2000/svg" xmlns:xlink="http://www.w3.org/1999/xlink" width="1000" zoomAndPan="magnify" viewBox="0 0 750 374.999991" height="500" preserveAspectRatio="xMidYMid meet" version="1.0"><defs><g/><clipPath id="63547777ff"><rect x="0" width="746" y="0" height="362"/></clipPath></defs><g transform="matrix(1, 0, 0, 1, 4, 0)"><g clip-path="url(#63547777ff)"><g fill="#000000" fill-opacity="1"><g transform="translate(23.270306, 257.784775)"><g><path d="M 93.453125 -191.328125 C 86.796875 -191.328125 81.710938 -188.460938 78.203125 -182.734375 C 76.535156 -180.148438 75.703125 -177.191406 75.703125 -173.859375 L 75.703125 -22.1875 C 75.703125 2.769531 69.328125 22.179688 56.578125 36.046875 C 44.929688 48.617188 31.25 54.90625 15.53125 54.90625 C 3.332031 54.90625 -9.050781 51.484375 -21.625 44.640625 L -20.796875 41.875 C -17.285156 42.613281 -13.957031 42.984375 -10.8125 42.984375 C -3.226562 42.984375 3.519531 41.039062 9.4375 37.15625 C 25.882812 26.800781 34.109375 6.742188 34.109375 -23.015625 L 34.109375 -173.859375 C 33.921875 -180.703125 30.960938 -185.785156 25.234375 -189.109375 C 22.460938 -190.585938 19.503906 -191.328125 16.359375 -191.328125 L 12.765625 -191.328125 L 12.765625 -194.109375 L 97.0625 -194.109375 L 97.0625 -191.328125 Z M 93.453125 -191.328125 "/></g></g></g><g fill="#000000" fill-opacity="1"><g transform="translate(116.441459, 257.784775)"><g><path d="M 45.046875 -3.046875 C 41.078125 0.828125 36.320312 2.765625 30.78125 2.765625 C 25.238281 2.765625 20.523438 0.828125 16.640625 -3.046875 C 12.753906 -6.929688 10.8125 -11.644531 10.8125 -17.1875 C 10.8125 -22.738281 12.753906 -27.5 16.640625 -31.46875 C 20.523438 -35.445312 25.238281 -37.4375 30.78125 -37.4375 C 36.320312 -37.4375 41.078125 -35.445312 45.046875 -31.46875 C 49.023438 -27.5 51.015625 -22.738281 51.015625 -17.1875 C 51.015625 -11.644531 49.023438 -6.929688 45.046875 -3.046875 Z M 45.046875 -3.046875 "/></g></g></g><g fill="#000000" fill-opacity="1"><g transform="translate(163.026916, 257.784775)"><g><path d="M 264.8125 54.90625 C 260.195312 54.90625 255.671875 54.535156 251.234375 53.796875 C 233.296875 51.023438 218.039062 44.226562 205.46875 33.40625 C 192.90625 22.59375 183.847656 9.144531 178.296875 -6.9375 C 160.921875 0.269531 142.160156 3.875 122.015625 3.875 C 88.734375 3.875 61.460938 -5.550781 40.203125 -24.40625 C 18.941406 -43.257812 8.3125 -67.472656 8.3125 -97.046875 C 8.3125 -116.828125 13.164062 -134.390625 22.875 -149.734375 C 32.582031 -165.078125 46.21875 -176.953125 63.78125 -185.359375 C 81.34375 -193.773438 101.398438 -197.984375 123.953125 -197.984375 C 138.742188 -197.984375 153.070312 -196.550781 166.9375 -193.6875 C 180.800781 -190.820312 191.984375 -187.265625 200.484375 -183.015625 L 201.046875 -135.328125 L 198.828125 -135.328125 C 194.390625 -152.148438 185.835938 -164.859375 173.171875 -173.453125 C 160.503906 -182.046875 145.300781 -186.34375 127.5625 -186.34375 C 105.738281 -186.34375 87.941406 -177.976562 74.171875 -161.25 C 60.398438 -144.519531 53.515625 -122.984375 53.515625 -96.640625 C 53.515625 -70.296875 60.257812 -48.894531 73.75 -32.4375 C 87.25 -15.988281 104.628906 -7.765625 125.890625 -7.765625 C 137.347656 -7.765625 147.28125 -10.257812 155.6875 -15.25 C 164.101562 -20.238281 169.789062 -26.894531 172.75 -35.21875 L 172.75 -77.359375 C 172.75 -81.429688 171.546875 -84.578125 169.140625 -86.796875 C 166.742188 -89.015625 163.328125 -90.125 158.890625 -90.125 L 154.453125 -90.125 L 154.453125 -92.890625 L 232.375 -92.890625 L 232.375 -90.125 L 228.21875 -90.125 C 223.59375 -90.125 220.078125 -89.015625 217.671875 -86.796875 C 215.273438 -84.578125 214.164062 -81.523438 214.34375 -77.640625 L 214.34375 -33.546875 C 214.53125 -21.347656 216.84375 -9.984375 221.28125 0.546875 C 231.082031 23.109375 247.351562 37.160156 270.09375 42.703125 C 276.1875 44.179688 282.515625 44.921875 289.078125 44.921875 C 295.640625 44.921875 302.34375 44.179688 309.1875 42.703125 L 309.734375 45.484375 C 293.835938 51.765625 278.863281 54.90625 264.8125 54.90625 Z M 264.8125 54.90625 "/></g></g></g><g fill="#000000" fill-opacity="1"><g transform="translate(386.804369, 257.784775)"><g><path d="M 45.046875 -3.046875 C 41.078125 0.828125 36.320312 2.765625 30.78125 2.765625 C 25.238281 2.765625 20.523438 0.828125 16.640625 -3.046875 C 12.753906 -6.929688 10.8125 -11.644531 10.8125 -17.1875 C 10.8125 -22.738281 12.753906 -27.5 16.640625 -31.46875 C 20.523438 -35.445312 25.238281 -37.4375 30.78125 -37.4375 C 36.320312 -37.4375 41.078125 -35.445312 45.046875 -31.46875 C 49.023438 -27.5 51.015625 -22.738281 51.015625 -17.1875 C 51.015625 -11.644531 49.023438 -6.929688 45.046875 -3.046875 Z M 45.046875 -3.046875 "/></g></g></g><g fill="#000000" fill-opacity="1"><g transform="translate(433.389826, 257.784775)"><g><path d="M 264.8125 54.90625 C 260.195312 54.90625 255.671875 54.535156 251.234375 53.796875 C 233.296875 51.023438 218.039062 44.226562 205.46875 33.40625 C 192.90625 22.59375 183.847656 9.144531 178.296875 -6.9375 C 160.921875 0.269531 142.160156 3.875 122.015625 3.875 C 88.734375 3.875 61.460938 -5.550781 40.203125 -24.40625 C 18.941406 -43.257812 8.3125 -67.472656 8.3125 -97.046875 C 8.3125 -116.828125 13.164062 -134.390625 22.875 -149.734375 C 32.582031 -165.078125 46.21875 -176.953125 63.78125 -185.359375 C 81.34375 -193.773438 101.398438 -197.984375 123.953125 -197.984375 C 138.742188 -197.984375 153.070312 -196.550781 166.9375 -193.6875 C 180.800781 -190.820312 191.984375 -187.265625 200.484375 -183.015625 L 201.046875 -135.328125 L 198.828125 -135.328125 C 194.390625 -152.148438 185.835938 -164.859375 173.171875 -173.453125 C 160.503906 -182.046875 145.300781 -186.34375 127.5625 -186.34375 C 105.738281 -186.34375 87.941406 -177.976562 74.171875 -161.25 C 60.398438 -144.519531 53.515625 -122.984375 53.515625 -96.640625 C 53.515625 -70.296875 60.257812 -48.894531 73.75 -32.4375 C 87.25 -15.988281 104.628906 -7.765625 125.890625 -7.765625 C 137.347656 -7.765625 147.28125 -10.257812 155.6875 -15.25 C 164.101562 -20.238281 169.789062 -26.894531 172.75 -35.21875 L 172.75 -77.359375 C 172.75 -81.429688 171.546875 -84.578125 169.140625 -86.796875 C 166.742188 -89.015625 163.328125 -90.125 158.890625 -90.125 L 154.453125 -90.125 L 154.453125 -92.890625 L 232.375 -92.890625 L 232.375 -90.125 L 228.21875 -90.125 C 223.59375 -90.125 220.078125 -89.015625 217.671875 -86.796875 C 215.273438 -84.578125 214.164062 -81.523438 214.34375 -77.640625 L 214.34375 -33.546875 C 214.53125 -21.347656 216.84375 -9.984375 221.28125 0.546875 C 231.082031 23.109375 247.351562 37.160156 270.09375 42.703125 C 276.1875 44.179688 282.515625 44.921875 289.078125 44.921875 C 295.640625 44.921875 302.34375 44.179688 309.1875 42.703125 L 309.734375 45.484375 C 293.835938 51.765625 278.863281 54.90625 264.8125 54.90625 Z M 264.8125 54.90625 "/></g></g></g><g fill="#000000" fill-opacity="1"><g transform="translate(657.167279, 257.784775)"><g><path d="M 45.046875 -3.046875 C 41.078125 0.828125 36.320312 2.765625 30.78125 2.765625 C 25.238281 2.765625 20.523438 0.828125 16.640625 -3.046875 C 12.753906 -6.929688 10.8125 -11.644531 10.8125 -17.1875 C 10.8125 -22.738281 12.753906 -27.5 16.640625 -31.46875 C 20.523438 -35.445312 25.238281 -37.4375 30.78125 -37.4375 C 36.320312 -37.4375 41.078125 -35.445312 45.046875 -31.46875 C 49.023438 -27.5 51.015625 -22.738281 51.015625 -17.1875 C 51.015625 -11.644531 49.023438 -6.929688 45.046875 -3.046875 Z M 45.046875 -3.046875 "/></g></g></g></g></g></svg>