<svg xmlns="http://www.w3.org/2000/svg" xmlns:xlink="http://www.w3.org/1999/xlink" width="2300" zoomAndPan="magnify" viewBox="0 0 1724.88 1075.499973" height="1434" preserveAspectRatio="xMidYMid meet" version="1.0"><defs><g/><clipPath id="434e3946d1"><rect x="0" width="1521" y="0" height="859"/></clipPath></defs><g transform="matrix(1, 0, 0, 1, 163, 108)"><g clip-path="url(#434e3946d1)"><g fill="#000000" fill-opacity="1"><g transform="translate(54.636066, 621.350964)"><g><path d="M -50.140625 85.703125 C -38.710938 89.515625 -27.390625 91.421875 -16.171875 91.421875 C -4.960938 91.421875 6.773438 89.09375 19.046875 84.4375 C 31.328125 79.78125 42.546875 72.476562 52.703125 62.53125 C 62.859375 52.582031 71.210938 37.660156 77.765625 17.765625 C 84.328125 -2.117188 87.609375 -25.601562 87.609375 -52.6875 L 87.609375 -398.0625 C 87.191406 -409.0625 83.066406 -418.472656 75.234375 -426.296875 C 67.398438 -434.128906 57.984375 -438.046875 46.984375 -438.046875 L 38.734375 -438.046875 L 38.734375 -444.40625 L 177.765625 -444.40625 L 177.765625 -438.046875 L 169.515625 -438.046875 C 158.503906 -438.046875 149.082031 -434.238281 141.25 -426.625 C 133.425781 -419.007812 129.300781 -409.488281 128.875 -398.0625 L 128.875 -50.78125 C 128.875 -22.007812 124.429688 3.164062 115.546875 24.75 C 106.660156 46.34375 95.445312 62.640625 81.90625 73.640625 C 56.507812 93.535156 28.363281 103.484375 -2.53125 103.484375 C -20.726562 103.484375 -37.445312 99.882812 -52.6875 92.6875 Z M -50.140625 85.703125 "/></g></g></g><g fill="#000000" fill-opacity="1"><g transform="translate(269.854021, 621.350964)"><g><path d="M 615.171875 110.46875 C 561.421875 110.46875 517.40625 93.328125 483.125 59.046875 C 457.726562 33.648438 441.007812 1.691406 432.96875 -36.828125 C 392.757812 -6.347656 343.453125 8.890625 285.046875 8.890625 C 238.921875 8.890625 196.914062 -1.160156 159.03125 -21.265625 C 121.15625 -41.367188 91.53125 -68.984375 70.15625 -104.109375 C 48.78125 -139.242188 38.09375 -178.816406 38.09375 -222.828125 C 38.09375 -266.847656 48.78125 -306.523438 70.15625 -341.859375 C 91.53125 -377.203125 121.050781 -404.609375 158.71875 -424.078125 C 196.382812 -443.554688 238.492188 -453.296875 285.046875 -453.296875 C 343.453125 -453.296875 394.878906 -438.90625 439.328125 -410.125 L 452.015625 -320.609375 L 446.3125 -320.609375 C 433.613281 -369.703125 404.832031 -403.132812 359.96875 -420.90625 C 337.957031 -429.800781 312.984375 -434.25 285.046875 -434.25 C 227.910156 -434.25 180.398438 -414.351562 142.515625 -374.5625 C 104.640625 -334.78125 85.703125 -284.3125 85.703125 -223.15625 C 85.703125 -162 104.75 -111.316406 142.84375 -71.109375 C 180.9375 -30.898438 228.335938 -10.582031 285.046875 -10.15625 C 312.554688 -10.15625 338.796875 -15.019531 363.765625 -24.75 C 388.742188 -34.488281 410.117188 -48.035156 427.890625 -65.390625 L 427.890625 -177.765625 C 427.890625 -187.078125 425.140625 -194.164062 419.640625 -199.03125 C 414.140625 -203.894531 406.3125 -206.328125 396.15625 -206.328125 L 386 -206.328125 L 386 -212.671875 L 510.421875 -212.671875 L 510.421875 -206.328125 L 500.90625 -206.328125 C 490.320312 -206.328125 482.28125 -203.894531 476.78125 -199.03125 C 471.28125 -194.164062 468.738281 -187.078125 469.15625 -177.765625 L 469.15625 -80 C 471.695312 -13.125 493.492188 34.703125 534.546875 63.484375 C 563.328125 83.796875 600.570312 93.953125 646.28125 93.953125 C 665.332031 93.953125 686.070312 92.050781 708.5 88.25 L 709.140625 94.59375 C 675.273438 105.175781 643.953125 110.46875 615.171875 110.46875 Z M 615.171875 110.46875 "/></g></g></g><g fill="#000000" fill-opacity="1"><g transform="translate(806.946621, 621.350964)"><g><path d="M 615.171875 110.46875 C 561.421875 110.46875 517.40625 93.328125 483.125 59.046875 C 457.726562 33.648438 441.007812 1.691406 432.96875 -36.828125 C 392.757812 -6.347656 343.453125 8.890625 285.046875 8.890625 C 238.921875 8.890625 196.914062 -1.160156 159.03125 -21.265625 C 121.15625 -41.367188 91.53125 -68.984375 70.15625 -104.109375 C 48.78125 -139.242188 38.09375 -178.816406 38.09375 -222.828125 C 38.09375 -266.847656 48.78125 -306.523438 70.15625 -341.859375 C 91.53125 -377.203125 121.050781 -404.609375 158.71875 -424.078125 C 196.382812 -443.554688 238.492188 -453.296875 285.046875 -453.296875 C 343.453125 -453.296875 394.878906 -438.90625 439.328125 -410.125 L 452.015625 -320.609375 L 446.3125 -320.609375 C 433.613281 -369.703125 404.832031 -403.132812 359.96875 -420.90625 C 337.957031 -429.800781 312.984375 -434.25 285.046875 -434.25 C 227.910156 -434.25 180.398438 -414.351562 142.515625 -374.5625 C 104.640625 -334.78125 85.703125 -284.3125 85.703125 -223.15625 C 85.703125 -162 104.75 -111.316406 142.84375 -71.109375 C 180.9375 -30.898438 228.335938 -10.582031 285.046875 -10.15625 C 312.554688 -10.15625 338.796875 -15.019531 363.765625 -24.75 C 388.742188 -34.488281 410.117188 -48.035156 427.890625 -65.390625 L 427.890625 -177.765625 C 427.890625 -187.078125 425.140625 -194.164062 419.640625 -199.03125 C 414.140625 -203.894531 406.3125 -206.328125 396.15625 -206.328125 L 386 -206.328125 L 386 -212.671875 L 510.421875 -212.671875 L 510.421875 -206.328125 L 500.90625 -206.328125 C 490.320312 -206.328125 482.28125 -203.894531 476.78125 -199.03125 C 471.28125 -194.164062 468.738281 -187.078125 469.15625 -177.765625 L 469.15625 -80 C 471.695312 -13.125 493.492188 34.703125 534.546875 63.484375 C 563.328125 83.796875 600.570312 93.953125 646.28125 93.953125 C 665.332031 93.953125 686.070312 92.050781 708.5 88.25 L 709.140625 94.59375 C 675.273438 105.175781 643.953125 110.46875 615.171875 110.46875 Z M 615.171875 110.46875 "/></g></g></g></g></g><path fill="#ffffff" d="M 446.699219 527.675781 L 1208.949219 527.675781 C 1213.339844 527.675781 1217.554688 529.417969 1220.660156 532.527344 C 1223.765625 535.632812 1225.511719 539.84375 1225.511719 544.234375 L 1225.511719 577.359375 C 1225.511719 581.75 1223.765625 585.964844 1220.660156 589.070312 C 1217.554688 592.175781 1213.339844 593.921875 1208.949219 593.921875 L 446.699219 593.921875 C 437.554688 593.921875 430.140625 586.503906 430.140625 577.359375 L 430.140625 544.234375 C 430.140625 535.089844 437.554688 527.675781 446.699219 527.675781 Z M 446.699219 527.675781 " fill-opacity="1" fill-rule="nonzero"/><g fill="#000000" fill-opacity="1"><g transform="translate(461.396478, 575.415939)"><g><path d="M 7.65625 0.359375 C 5.488281 0.359375 3.644531 -0.148438 2.125 -1.171875 C 0.601562 -2.203125 -0.425781 -3.664062 -0.96875 -5.5625 L 3.328125 -7.484375 C 3.722656 -6.390625 4.257812 -5.566406 4.9375 -5.015625 C 5.625 -4.472656 6.515625 -4.203125 7.609375 -4.203125 C 9.984375 -4.203125 11.171875 -5.671875 11.171875 -8.609375 L 11.171875 -28.4375 L 16.421875 -28.4375 L 16.421875 -9.125 C 16.421875 -6.082031 15.671875 -3.738281 14.171875 -2.09375 C 12.679688 -0.457031 10.507812 0.359375 7.65625 0.359375 Z M 7.65625 0.359375 "/></g></g></g><g fill="#000000" fill-opacity="1"><g transform="translate(511.089768, 575.415939)"><g><path d="M 15.578125 0.359375 C 12.691406 0.390625 10.222656 -0.144531 8.171875 -1.25 C 6.117188 -2.363281 4.539062 -3.972656 3.4375 -6.078125 C 2.34375 -8.191406 1.796875 -10.734375 1.796875 -13.703125 C 1.796875 -16.660156 2.382812 -19.28125 3.5625 -21.5625 C 4.738281 -23.84375 6.398438 -25.625 8.546875 -26.90625 C 10.703125 -28.1875 13.242188 -28.828125 16.171875 -28.828125 C 18.796875 -28.828125 21.09375 -28.238281 23.0625 -27.0625 C 25.039062 -25.894531 26.578125 -24.257812 27.671875 -22.15625 C 28.765625 -20.0625 29.3125 -17.601562 29.3125 -14.78125 C 29.3125 -11.707031 28.71875 -9.039062 27.53125 -6.78125 C 26.34375 -4.53125 24.710938 -2.773438 22.640625 -1.515625 C 20.578125 -0.265625 18.222656 0.359375 15.578125 0.359375 Z M 15.421875 -4.328125 C 17.097656 -4.328125 18.582031 -4.738281 19.875 -5.5625 C 21.175781 -6.394531 22.191406 -7.582031 22.921875 -9.125 C 23.660156 -10.675781 24.03125 -12.5625 24.03125 -14.78125 C 24.03125 -17.632812 23.304688 -19.914062 21.859375 -21.625 C 20.421875 -23.332031 18.488281 -24.1875 16.0625 -24.1875 C 14.320312 -24.1875 12.773438 -23.742188 11.421875 -22.859375 C 10.078125 -21.984375 9.019531 -20.769531 8.25 -19.21875 C 7.476562 -17.675781 7.09375 -15.863281 7.09375 -13.78125 C 7.09375 -10.757812 7.832031 -8.425781 9.3125 -6.78125 C 10.789062 -5.144531 12.828125 -4.328125 15.421875 -4.328125 Z M 15.421875 -4.328125 "/></g></g></g><g fill="#000000" fill-opacity="1"><g transform="translate(572.673767, 575.415939)"><g><path d="M 2.921875 0 L 2.921875 -28.4375 L 8.125 -28.4375 L 8.125 -16.65625 L 21.578125 -16.65625 L 21.578125 -28.4375 L 26.828125 -28.4375 L 26.828125 0 L 21.578125 0 L 21.578125 -12.09375 L 8.125 -12.09375 L 8.125 0 Z M 2.921875 0 "/></g></g></g><g fill="#000000" fill-opacity="1"><g transform="translate(632.856504, 575.415939)"><g><path d="M 21.625 -28.4375 L 26.625 -28.4375 L 26.625 0 L 22.0625 0 L 7.921875 -19.828125 L 7.921875 0 L 2.921875 0 L 2.921875 -28.4375 L 7.484375 -28.4375 L 21.625 -8.609375 Z M 21.625 -28.4375 "/></g></g></g><g fill="#000000" fill-opacity="1"><g transform="translate(692.879087, 575.415939)"><g/></g></g><g fill="#000000" fill-opacity="1"><g transform="translate(733.083858, 575.415939)"><g><path d="M 16.78125 -14.8125 L 28.078125 -14.8125 L 28.078125 0 L 23.953125 0 L 23.5 -3.046875 C 22.570312 -1.816406 21.382812 -0.941406 19.9375 -0.421875 C 18.5 0.0976562 16.910156 0.359375 15.171875 0.359375 C 12.453125 0.359375 10.09375 -0.195312 8.09375 -1.3125 C 6.09375 -2.4375 4.539062 -4.046875 3.4375 -6.140625 C 2.34375 -8.242188 1.796875 -10.75 1.796875 -13.65625 C 1.796875 -16.675781 2.414062 -19.316406 3.65625 -21.578125 C 4.90625 -23.847656 6.671875 -25.625 8.953125 -26.90625 C 11.234375 -28.1875 13.910156 -28.828125 16.984375 -28.828125 C 19.492188 -28.828125 21.640625 -28.359375 23.421875 -27.421875 C 25.210938 -26.492188 26.695312 -25.097656 27.875 -23.234375 L 23.875 -20.296875 C 23.144531 -21.578125 22.164062 -22.523438 20.9375 -23.140625 C 19.71875 -23.753906 18.375 -24.0625 16.90625 -24.0625 C 14.925781 -24.0625 13.207031 -23.628906 11.75 -22.765625 C 10.300781 -21.898438 9.179688 -20.691406 8.390625 -19.140625 C 7.597656 -17.585938 7.203125 -15.785156 7.203125 -13.734375 C 7.203125 -10.742188 7.957031 -8.425781 9.46875 -6.78125 C 10.976562 -5.144531 13.054688 -4.328125 15.703125 -4.328125 C 16.953125 -4.328125 18.132812 -4.550781 19.25 -5 C 20.375 -5.457031 21.289062 -6.132812 22 -7.03125 C 22.707031 -7.925781 23.0625 -9.023438 23.0625 -10.328125 L 23.0625 -10.578125 L 16.78125 -10.578125 Z M 16.78125 -14.8125 "/></g></g></g><g fill="#000000" fill-opacity="1"><g transform="translate(793.66694, 575.415939)"><g><path d="M 4.765625 0.359375 C 3.722656 0.359375 2.894531 0.0390625 2.28125 -0.59375 C 1.664062 -1.238281 1.359375 -2.03125 1.359375 -2.96875 C 1.359375 -3.894531 1.664062 -4.675781 2.28125 -5.3125 C 2.894531 -5.957031 3.722656 -6.28125 4.765625 -6.28125 C 5.804688 -6.28125 6.632812 -5.957031 7.25 -5.3125 C 7.863281 -4.675781 8.171875 -3.894531 8.171875 -2.96875 C 8.171875 -2.03125 7.863281 -1.238281 7.25 -0.59375 C 6.632812 0.0390625 5.804688 0.359375 4.765625 0.359375 Z M 4.765625 0.359375 "/></g></g></g><g fill="#000000" fill-opacity="1"><g transform="translate(833.631475, 575.415939)"><g/></g></g><g fill="#000000" fill-opacity="1"><g transform="translate(873.836223, 575.415939)"><g><path d="M 16.78125 -14.8125 L 28.078125 -14.8125 L 28.078125 0 L 23.953125 0 L 23.5 -3.046875 C 22.570312 -1.816406 21.382812 -0.941406 19.9375 -0.421875 C 18.5 0.0976562 16.910156 0.359375 15.171875 0.359375 C 12.453125 0.359375 10.09375 -0.195312 8.09375 -1.3125 C 6.09375 -2.4375 4.539062 -4.046875 3.4375 -6.140625 C 2.34375 -8.242188 1.796875 -10.75 1.796875 -13.65625 C 1.796875 -16.675781 2.414062 -19.316406 3.65625 -21.578125 C 4.90625 -23.847656 6.671875 -25.625 8.953125 -26.90625 C 11.234375 -28.1875 13.910156 -28.828125 16.984375 -28.828125 C 19.492188 -28.828125 21.640625 -28.359375 23.421875 -27.421875 C 25.210938 -26.492188 26.695312 -25.097656 27.875 -23.234375 L 23.875 -20.296875 C 23.144531 -21.578125 22.164062 -22.523438 20.9375 -23.140625 C 19.71875 -23.753906 18.375 -24.0625 16.90625 -24.0625 C 14.925781 -24.0625 13.207031 -23.628906 11.75 -22.765625 C 10.300781 -21.898438 9.179688 -20.691406 8.390625 -19.140625 C 7.597656 -17.585938 7.203125 -15.785156 7.203125 -13.734375 C 7.203125 -10.742188 7.957031 -8.425781 9.46875 -6.78125 C 10.976562 -5.144531 13.054688 -4.328125 15.703125 -4.328125 C 16.953125 -4.328125 18.132812 -4.550781 19.25 -5 C 20.375 -5.457031 21.289062 -6.132812 22 -7.03125 C 22.707031 -7.925781 23.0625 -9.023438 23.0625 -10.328125 L 23.0625 -10.578125 L 16.78125 -10.578125 Z M 16.78125 -14.8125 "/></g></g></g><g fill="#000000" fill-opacity="1"><g transform="translate(934.419305, 575.415939)"><g><path d="M 25.390625 -4.96875 L 26.59375 -0.921875 C 26.0625 -0.523438 25.40625 -0.210938 24.625 0.015625 C 23.851562 0.242188 23.039062 0.359375 22.1875 0.359375 C 19.195312 0.359375 16.847656 -0.960938 15.140625 -3.609375 L 11.015625 -9.9375 C 10.585938 -10.601562 10.144531 -11.066406 9.6875 -11.328125 C 9.238281 -11.597656 8.742188 -11.734375 8.203125 -11.734375 L 8.015625 -11.734375 L 8.015625 0 L 2.921875 0 L 2.921875 -28.4375 L 11.78125 -28.4375 C 15.382812 -28.4375 18.113281 -27.6875 19.96875 -26.1875 C 21.820312 -24.695312 22.75 -22.644531 22.75 -20.03125 C 22.75 -18.445312 22.398438 -17.085938 21.703125 -15.953125 C 21.015625 -14.816406 20.066406 -13.914062 18.859375 -13.25 C 17.660156 -12.582031 16.300781 -12.15625 14.78125 -11.96875 C 15.582031 -11.539062 16.316406 -10.820312 16.984375 -9.8125 L 19.21875 -6.484375 C 19.8125 -5.628906 20.367188 -5.039062 20.890625 -4.71875 C 21.410156 -4.40625 22.066406 -4.25 22.859375 -4.25 C 23.796875 -4.25 24.640625 -4.488281 25.390625 -4.96875 Z M 11.40625 -24.1875 L 8.015625 -24.1875 L 8.015625 -15.8125 L 11.171875 -15.8125 C 13.359375 -15.8125 14.972656 -16.144531 16.015625 -16.8125 C 17.054688 -17.488281 17.578125 -18.5625 17.578125 -20.03125 C 17.578125 -22.800781 15.519531 -24.1875 11.40625 -24.1875 Z M 11.40625 -24.1875 "/></g></g></g><g fill="#000000" fill-opacity="1"><g transform="translate(989.997924, 575.415939)"><g><path d="M 21.828125 -28.4375 L 26.984375 -28.4375 L 27.03125 -13.296875 C 27.0625 -10.460938 26.601562 -8.023438 25.65625 -5.984375 C 24.707031 -3.941406 23.332031 -2.375 21.53125 -1.28125 C 19.726562 -0.1875 17.554688 0.359375 15.015625 0.359375 C 10.960938 0.359375 7.910156 -0.660156 5.859375 -2.703125 C 3.816406 -4.742188 2.796875 -7.859375 2.796875 -12.046875 L 2.796875 -28.4375 L 8.015625 -28.4375 L 8.015625 -12.453125 C 8.015625 -9.597656 8.59375 -7.53125 9.75 -6.25 C 10.914062 -4.96875 12.644531 -4.328125 14.9375 -4.328125 C 17.257812 -4.328125 19 -5.070312 20.15625 -6.5625 C 21.320312 -8.0625 21.890625 -10.382812 21.859375 -13.53125 Z M 21.828125 -28.4375 "/></g></g></g><g fill="#000000" fill-opacity="1"><g transform="translate(1050.300757, 575.415939)"><g><path d="M 21.625 -28.4375 L 26.625 -28.4375 L 26.625 0 L 22.0625 0 L 7.921875 -19.828125 L 7.921875 0 L 2.921875 0 L 2.921875 -28.4375 L 7.484375 -28.4375 L 21.625 -8.609375 Z M 21.625 -28.4375 "/></g></g></g><g fill="#000000" fill-opacity="1"><g transform="translate(1110.323386, 575.415939)"><g><path d="M 2.921875 0 L 2.921875 -28.4375 L 11.375 -28.4375 C 16.894531 -28.4375 21.070312 -27.25 23.90625 -24.875 C 26.738281 -22.5 28.15625 -18.988281 28.15625 -14.34375 C 28.15625 -11.457031 27.523438 -8.9375 26.265625 -6.78125 C 25.015625 -4.632812 23.238281 -2.96875 20.9375 -1.78125 C 18.644531 -0.59375 15.953125 0 12.859375 0 Z M 8.125 -4.609375 L 12.65625 -4.609375 C 15.988281 -4.609375 18.519531 -5.414062 20.25 -7.03125 C 21.988281 -8.644531 22.859375 -11.015625 22.859375 -14.140625 C 22.859375 -17.390625 21.972656 -19.816406 20.203125 -21.421875 C 18.429688 -23.023438 15.710938 -23.828125 12.046875 -23.828125 L 8.125 -23.828125 Z M 8.125 -4.609375 "/></g></g></g><g fill="#000000" fill-opacity="1"><g transform="translate(1170.746325, 575.415939)"><g><path d="M 24.34375 -28.4375 L 14.421875 -12.734375 L 14.421875 0 L 9.171875 0 L 9.171875 -12.609375 L -1.046875 -28.4375 L 4.84375 -28.4375 L 12.015625 -17.265625 L 18.90625 -28.4375 Z M 24.34375 -28.4375 "/></g></g></g></svg>